<?xml version="1.0" standalone="no"?>
<!DOCTYPE svg PUBLIC "-//W3C//DTD SVG 20010904//EN"
 "http://www.w3.org/TR/2001/REC-SVG-20010904/DTD/svg10.dtd">
<svg version="1.0" xmlns="http://www.w3.org/2000/svg"
 width="260.000000pt" height="260.000000pt" viewBox="0 0 260.000000 260.000000"
 preserveAspectRatio="xMidYMid meet">
<metadata>
Created by potrace 1.11, written by Peter Selinger 2001-2013
</metadata>
<g transform="translate(0.000000,260.000000) scale(0.100000,-0.100000)"
fill="#000000" stroke="none">
<path d="M1286 2510 c-2 -8 -71 -219 -152 -467 l-148 -453 -490 -2 -490 -3
134 -97 134 -98 432 0 c336 0 433 3 437 13 2 6 37 110 77 230 39 119 73 217
75 217 2 0 58 -170 126 -387 l23 -73 438 0 437 0 132 97 132 98 -489 3 -489 2
-150 455 c-82 250 -152 461 -156 467 -6 9 -9 9 -13 -2z"/>
<path d="M570 1182 c-6 -2 41 -42 105 -89 63 -46 115 -89 115 -94 0 -6 -11
-43 -24 -82 -13 -40 -49 -153 -81 -252 -31 -99 -86 -269 -121 -378 -35 -109
-64 -203 -64 -209 0 -7 10 -2 23 9 30 27 764 553 772 553 4 0 84 -55 178 -123
258 -185 558 -400 595 -426 l32 -23 -9 24 c-6 13 -44 131 -86 263 -42 132 -99
310 -127 395 -27 85 -56 176 -64 202 -9 26 -13 51 -10 56 2 4 42 35 88 67 46
33 92 68 102 77 11 10 24 18 28 18 5 0 7 3 5 8 -4 5 -474 8 -509 3 -4 -1 -1
-20 7 -43 8 -24 44 -137 80 -253 36 -116 71 -221 76 -234 5 -13 8 -25 6 -27
-2 -2 -91 61 -197 140 l-194 144 -61 -43 c-33 -23 -124 -88 -202 -143 -79 -56
-143 -96 -143 -89 0 7 40 131 89 277 49 146 87 267 85 270 -6 5 -479 7 -494 2z"/>
</g>
</svg>
